{"title":"Rookie.Blue.S02E01.Butterflies.720p.WEB.DL.DD5.1.H264.KiNGS.mkv","uid":6492299,"size":1394912505,"categoryP":"video","categoryS":"hd___tv_shows","magnet":"?xt=urn:btih:73f5413bc53ab2a1600fb31eedfa7eb0b2215037&amp;dn=Rookie.Blue.S02E01.Butterflies.720p.WEB.DL.DD5.1.H264.KiNGS.mkv&amp;tr=udp%3A%2F%2Ftracker.openbittorrent.com%3A80&amp;tr=udp%3A%2F%2Fopen.demonii.com%3A1337&amp;tr=udp%3A%2F%2Ftracker.coppersurfer.tk%3A6969&amp;tr=udp%3A%2F%2Fexodus.desync.com%3A6969","seeders":0,"leechers":1,"uploader":"thetorrentlord","files":1,"time":1308931504,"description":"All credit to the original upper.                                                                     \t\n\n\t\t\t\t\t\t\t\t\t\t\t\t\t\n\nJust became available on direct download sites.                                                   \t\n\n\t\t\t\t\t\t\t\t\t\t\t\t\t\n\nEnjoy and please share.                                                                                \n\n                                                                                                       \n\n              \t\t\t\t\t\t\t\t\t\t\t\n\n*************************                                                       \t\t\t\n\n*************************\t\t\t\t\t\t\t\t\t\t\n\n\t\t\t\t\t\t\t\t\t\t\t\t\t\n\n\t\tRookie.Blue.S02E01.Butterflies.720p.WEB.DL.DD5.1.H264.KiNGS.mkv\n\t\t\t\t\t\t\t\t\t\t\t\t\t\n\nFormat                           : Matroska\nFile size                        : 1.30 GiB\nDuration                         : 41mn 53s\nOverall bit rate                 : 4 439 Kbps\nMovie name                       : Rookie.Blue.S02E01.Butterflies.720p.WEB.DL.DD5.1.H264.KiNGS.mkv \n\n17868\nEncoded date                     : UTC 2011-06-24 09:02:13\nWriting application              : mkvmerge v2.9.8 ('C'est le bon') built on Aug 13 2009 12:49:06\nWriting library                  : libebml v0.7.7 + libmatroska v0.8.1\n\nVideo\nID                               : 1\nFormat                           : AVC\nFormat/Info                      : Advanced Video Codec\nFormat profile                   : &lt;a class=&quot;__cf_email__&quot; href=&quot;/cdn-cgi/l/email-protection&quot; data-cfemail=&quot;db93b2bcb39b97e8f5ea&quot;&gt;[email&amp;#160;protected]&lt;/a&gt;&lt;script cf-hash='f9e31' type=&quot;text/javascript&quot;&gt;\n/* &lt;![CDATA[ */!function(){try{var t=&quot;currentScript&quot;in document?document.currentScript:function(){for(var t=document.getElementsByTagName(&quot;script&quot;),e=t.length;e--;)if(t[e].getAttribute(&quot;cf-hash&quot;))return t[e]}();if(t&amp;&amp;t.previousSibling){var e,r,n,i,c=t.previousSibling,a=c.getAttribute(&quot;data-cfemail&quot;);if(a){for(e=&quot;&quot;,r=parseInt(a.substr(0,2),16),n=2;a.length-n;n+=2)i=parseInt(a.substr(n,2),16)^r,e+=String.fromCharCode(i);e=document.createTextNode(e),c.parentNode.replaceChild(e,c)}}}catch(u){}}();/* ]]&gt; */&lt;/script&gt;\nFormat settings, CABAC           : No\nFormat settings, ReFrames        : 2 frames\nMuxing mode                      : Container profile=&lt;a class=&quot;__cf_email__&quot; href=&quot;/cdn-cgi/l/email-protection&quot; data-cfemail=&quot;b2e7dcd9dcddc5dcf2819c83&quot;&gt;[email&amp;#160;protected]&lt;/a&gt;&lt;script cf-hash='f9e31' type=&quot;text/javascript&quot;&gt;\n/* &lt;![CDATA[ */!function(){try{var t=&quot;currentScript&quot;in document?document.currentScript:function(){for(var t=document.getElementsByTagName(&quot;script&quot;),e=t.length;e--;)if(t[e].getAttribute(&quot;cf-hash&quot;))return t[e]}();if(t&amp;&amp;t.previousSibling){var e,r,n,i,c=t.previousSibling,a=c.getAttribute(&quot;data-cfemail&quot;);if(a){for(e=&quot;&quot;,r=parseInt(a.substr(0,2),16),n=2;a.length-n;n+=2)i=parseInt(a.substr(n,2),16)^r,e+=String.fromCharCode(i);e=document.createTextNode(e),c.parentNode.replaceChild(e,c)}}}catch(u){}}();/* ]]&gt; */&lt;/script&gt;\nCodec ID                         : V_MPEG4/ISO/AVC\nDuration                         : 41mn 51s\nBit rate                         : 3 967 Kbps\nWidth                            : 1 280 pixels\nHeight                           : 718 pixels\nDisplay aspect ratio             : 16:9\nFrame rate                       : 23.976 fps\nResolution                       : 8 bits\nColorimetry                      : 4:2:0\nScan type                        : Progressive\nBits/(Pixel*Frame)               : 0.180\nStream size                      : 1.16 GiB (89%)\nLanguage                         : English\nColor primaries                  : BT.709-5, BT.1361, IEC 61966-2-4, SMPTE RP177\nTransfer characteristics         : BT.709-5, BT.1361\nMatrix coefficients              : BT.709-5, BT.1361, IEC 61966-2-4 709, SMPTE RP177\n\nAudio\nID                               : 2\nFormat                           : AC-3\nFormat/Info                      : Audio Coding 3\nCodec ID                         : A_AC3\nDuration                         : 41mn 53s\nBit rate mode                    : Constant\nBit rate                         : 384 Kbps\nChannel(s)                       : 6 channels\nChannel positions                : Front: L C R, Surround: L R, LFE\nSampling rate                    : 48.0 KHz\nStream size                      : 115 MiB (9%)\nLanguage                         : English\n\n\n","torrent":{"xt":"urn:btih:73f5413bc53ab2a1600fb31eedfa7eb0b2215037","amp;dn":"Rookie.Blue.S02E01.Butterflies.720p.WEB.DL.DD5.1.H264.KiNGS.mkv","amp;tr":["udp%3A%2F%2Ftracker.openbittorrent.com%3A80","udp%3A%2F%2Fopen.demonii.com%3A1337","udp%3A%2F%2Ftracker.coppersurfer.tk%3A6969","udp%3A%2F%2Fexodus.desync.com%3A6969"],"infoHash":"73f5413bc53ab2a1600fb31eedfa7eb0b2215037","infoHashBuffer":{"type":"Buffer","data":[115,245,65,59,197,58,178,161,96,15,179,30,237,250,126,176,178,33,80,55]},"announce":[],"urlList":[]}}